<svg width="24" height="25" viewBox="0 0 24 25" fill="none" xmlns="http://www.w3.org/2000/svg">
<path fill-rule="evenodd" clip-rule="evenodd" d="M0.414376 12.4749C0.407775 12.2106 0.505301 11.9443 0.706956 11.7426L7.64005 4.80954C8.03057 4.41902 8.66374 4.41902 9.05426 4.80954C9.44479 5.20006 9.44479 5.83323 9.05426 6.22375L3.77802 11.5H21.9997C22.552 11.5 22.9997 11.9477 22.9997 12.5C22.9997 13.0523 22.552 13.5 21.9997 13.5H3.82827L9.10051 18.7722C9.49103 19.1628 9.49103 19.7959 9.10051 20.1864C8.70999 20.577 8.07682 20.577 7.6863 20.1864L0.706956 13.2071C0.505302 13.0055 0.407775 12.7391 0.414376 12.4749Z" fill="#7C86A0"/>
</svg>
