<svg width="32" height="32" viewBox="0 0 32 32" fill="none" xmlns="http://www.w3.org/2000/svg">
<g clip-path="url(#clip0_737_1017)">
<path fill-rule="evenodd" clip-rule="evenodd" d="M16 32C24.8366 32 32 24.8366 32 16C32 7.16344 24.8366 0 16 0C7.16344 0 0 7.16344 0 16C0 24.8366 7.16344 32 16 32ZM18.537 8.80207C18.6495 8.81034 21.2777 9.0403 22.9392 10.3969C23.8408 11.2406 25.6 16.0647 25.6 20.2354C25.6 20.3098 25.5805 20.381 25.5446 20.4455C24.3315 22.6094 21.0201 23.1752 20.2652 23.2H20.2522C20.1185 23.2 19.993 23.1355 19.9147 23.0263L19.1517 21.9609C21.2109 21.4215 22.2625 20.505 22.3229 20.4504C22.4957 20.2966 22.512 20.0302 22.3604 19.8549C22.2071 19.6778 21.9446 19.663 21.7718 19.8152L21.7711 19.8157C21.7262 19.854 19.7897 21.5059 16 21.5059C12.1913 21.5059 10.2544 19.8383 10.2299 19.8152C10.0571 19.6613 9.79296 19.6779 9.64133 19.8532C9.48807 20.0286 9.50437 20.2966 9.6772 20.4504C9.73752 20.505 10.7892 21.4215 12.8484 21.9609L12.0854 23.0263C12.0071 23.1355 11.8815 23.2 11.7479 23.2H11.7348C10.9799 23.1752 7.6685 22.6094 6.45546 20.4455C6.41959 20.381 6.40002 20.3098 6.40002 20.2354C6.40002 16.0647 8.15926 11.2406 9.03807 10.4151C10.7223 9.0403 13.3506 8.81034 13.4631 8.80207C13.6392 8.78387 13.8038 8.88644 13.8772 9.05023L13.8778 9.05171C13.8858 9.07039 13.9412 9.20091 14.0027 9.40426C12.9038 9.5912 11.5538 9.9717 10.3326 10.7393C10.137 10.8634 10.0767 11.1231 10.1989 11.3233C10.3196 11.5218 10.5772 11.5831 10.7729 11.459C12.8712 10.1371 15.4946 10.071 16 10.071C16.5055 10.071 19.1272 10.1371 21.2272 11.459C21.2957 11.502 21.3723 11.5235 21.4473 11.5235C21.5875 11.5235 21.7229 11.4524 21.8027 11.3217C21.9234 11.1231 21.8631 10.8618 21.6674 10.7393C20.4462 9.97005 19.0962 9.5912 17.9973 9.4026C18.0609 9.19415 18.118 9.06015 18.1245 9.05023C18.1962 8.88644 18.3625 8.78718 18.537 8.80207ZM11.8261 16.8472C11.8261 17.7836 12.4799 18.5413 13.287 18.5413C14.094 18.5413 14.7479 17.7836 14.7479 16.8472C14.7479 15.9109 14.094 15.1532 13.287 15.1532C12.4799 15.1532 11.8261 15.9109 11.8261 16.8472ZM17.2522 16.8472C17.2522 17.7836 17.906 18.5413 18.7131 18.5413C19.5201 18.5413 20.1739 17.7836 20.1739 16.8472C20.1739 15.9109 19.5201 15.1532 18.7131 15.1532C17.906 15.1532 17.2522 15.9109 17.2522 16.8472Z" fill="#7C86A0"/>
</g>
<defs>
<clipPath id="clip0_737_1017">
<rect width="32" height="32" fill="white"/>
</clipPath>
</defs>
</svg>
