<svg width="16" height="17" viewBox="0 0 16 17" fill="none" xmlns="http://www.w3.org/2000/svg">
<circle cx="8" cy="8.5" r="8" fill="#242628"/>
<path d="M6.93377 10.2273V10.0568C6.93377 9.66619 6.96455 9.35488 7.0261 9.12287C7.08765 8.89086 7.1788 8.70502 7.29954 8.56534C7.42028 8.4233 7.56824 8.29545 7.74343 8.18182C7.89495 8.08239 8.02989 7.98651 8.14826 7.89418C8.269 7.80185 8.3637 7.7036 8.43235 7.59943C8.50337 7.49527 8.53888 7.37689 8.53888 7.24432C8.53888 7.12595 8.51048 7.02178 8.45366 6.93182C8.39684 6.84186 8.3199 6.77202 8.22283 6.7223C8.12577 6.67259 8.01805 6.64773 7.89968 6.64773C7.77184 6.64773 7.65347 6.67732 7.54457 6.73651C7.43803 6.79569 7.35162 6.87737 7.28533 6.98153C7.22141 7.0857 7.18945 7.20644 7.18945 7.34375H5.37127C5.37601 6.82292 5.49438 6.40033 5.72638 6.07599C5.95839 5.74929 6.26616 5.51018 6.64968 5.35866C7.0332 5.20478 7.4546 5.12784 7.91388 5.12784C8.42051 5.12784 8.87269 5.20241 9.27042 5.35156C9.66815 5.49834 9.98183 5.72088 10.2115 6.01918C10.4411 6.3151 10.5559 6.68561 10.5559 7.13068C10.5559 7.41714 10.5062 7.66927 10.4068 7.88707C10.3097 8.10251 10.1736 8.29309 9.9984 8.45881C9.82558 8.62216 9.62317 8.77131 9.39116 8.90625C9.2207 9.00568 9.07747 9.10866 8.96147 9.2152C8.84547 9.31937 8.75787 9.43892 8.69869 9.57386C8.6395 9.70644 8.60991 9.86742 8.60991 10.0568V10.2273H6.93377ZM7.80025 12.6136C7.52563 12.6136 7.29007 12.5178 7.09357 12.326C6.89944 12.1319 6.80356 11.8963 6.80593 11.6193C6.80356 11.3494 6.89944 11.1186 7.09357 10.9268C7.29007 10.7351 7.52563 10.6392 7.80025 10.6392C8.06067 10.6392 8.29031 10.7351 8.48917 10.9268C8.6904 11.1186 8.7922 11.3494 8.79457 11.6193C8.7922 11.804 8.74367 11.9721 8.64897 12.1236C8.55664 12.2727 8.4359 12.3923 8.28675 12.4822C8.13761 12.5698 7.97544 12.6136 7.80025 12.6136Z" fill="#00CBA1"/>
</svg>
