<svg width="18" height="24" viewBox="0 0 18 24" fill="none" xmlns="http://www.w3.org/2000/svg">
<path d="M9 1.8125V15.3125" stroke="#7C86A0" stroke-width="2" stroke-linecap="round"/>
<path fill-rule="evenodd" clip-rule="evenodd" d="M14.2953 11.608C14.7347 11.1687 14.7347 10.4563 14.2953 10.017C13.856 9.57767 13.1437 9.57767 12.7043 10.017L8.99991 13.7214L5.2955 10.017C4.85616 9.57767 4.14384 9.57767 3.7045 10.017C3.26517 10.4563 3.26517 11.1687 3.7045 11.608L8.19274 16.0962C8.19657 16.1002 8.20044 16.1041 8.20434 16.108C8.42145 16.3251 8.70524 16.4349 8.98979 16.4375C9.2811 16.4401 9.57323 16.3303 9.7955 16.108C9.79944 16.1041 9.80334 16.1001 9.80722 16.0961L14.2953 11.608Z" fill="#7C86A0"/>
<path fill-rule="evenodd" clip-rule="evenodd" d="M3.87913 13.0625L7.9398 17.1232C7.95068 17.134 7.96176 17.1446 7.97305 17.1549C8.56096 17.7088 9.48663 17.6982 10.0616 17.1232L14.1223 13.0625H17C17.5523 13.0625 18 13.5102 18 14.0625V19.1875C18 21.3966 16.2091 23.1875 14 23.1875H4C1.79086 23.1875 0 21.3966 0 19.1875V14.0625C0 13.5102 0.447715 13.0625 1 13.0625H3.87913Z" fill="#7C86A0"/>
</svg>
