<svg width="24" height="24" viewBox="0 0 24 24" fill="none" xmlns="http://www.w3.org/2000/svg">
<path d="M12 1.8125V15.3125" stroke="white" stroke-width="2" stroke-linecap="round"/>
<path fill-rule="evenodd" clip-rule="evenodd" d="M17.2953 11.608C17.7347 11.1687 17.7347 10.4563 17.2953 10.017C16.856 9.57767 16.1437 9.57767 15.7043 10.017L11.9999 13.7214L8.2955 10.017C7.85616 9.57767 7.14384 9.57767 6.7045 10.017C6.26517 10.4563 6.26517 11.1687 6.7045 11.608L11.1927 16.0962C11.1966 16.1002 11.2004 16.1041 11.2043 16.108C11.4215 16.3251 11.7052 16.4349 11.9898 16.4375C12.2811 16.4401 12.5732 16.3303 12.7955 16.108C12.7994 16.1041 12.8033 16.1001 12.8072 16.0961L17.2953 11.608Z" fill="white"/>
<path fill-rule="evenodd" clip-rule="evenodd" d="M6.87913 13.0625L10.9398 17.1232C10.9507 17.134 10.9618 17.1446 10.973 17.1549C11.561 17.7088 12.4866 17.6982 13.0616 17.1232L17.1223 13.0625H20C20.5523 13.0625 21 13.5102 21 14.0625V19.1875C21 21.3966 19.2091 23.1875 17 23.1875H7C4.79086 23.1875 3 21.3966 3 19.1875V14.0625C3 13.5102 3.44772 13.0625 4 13.0625H6.87913Z" fill="white"/>
</svg>
