<svg width="18" height="24" viewBox="0 0 18 24" fill="none" xmlns="http://www.w3.org/2000/svg">
<path fill-rule="evenodd" clip-rule="evenodd" d="M8.92871 9.80001C8.92871 6.44016 11.8787 1.86708 13.3539 0.000252227V14C11.8787 13.9999 8.92871 13.1599 8.92871 9.80001ZM13.3539 0.000252227L13.3541 14C14.8293 13.9999 17.7793 13.1599 17.7793 9.80001C17.7793 6.44016 14.8293 1.86708 13.3541 0.000252227V0L13.354 0.000126167L13.3539 0V0.000252227ZM7.96973 9.97848C7.96973 8.90258 8.22258 7.72357 8.62764 6.52985C7.9623 5.51422 7.33079 4.64507 6.82199 4.00114V3.99998L6.82153 4.00056L6.82108 3.99998V4.00114C4.71344 6.66854 0.5 13.2007 0.5 18C0.5 22.7993 4.71344 23.9997 6.82108 24V4.00114L6.82199 24C8.92962 23.9997 13.1431 22.7993 13.1431 18C13.1431 17.055 12.9797 16.0429 12.7013 15.0063C10.8101 14.7849 7.96973 13.5845 7.96973 9.97848Z" fill="white"/>
</svg>
