<svg width="32" height="32" viewBox="0 0 32 32" fill="none" xmlns="http://www.w3.org/2000/svg">
<path fill-rule="evenodd" clip-rule="evenodd" d="M16 0C7.16344 0 0 7.16344 0 16C0 24.8366 7.16344 32 16 32C24.8366 32 32 24.8366 32 16C32 7.16344 24.8366 0 16 0ZM7.09918 11.7574C8.22984 10.6321 9.76333 10 11.3623 10C12.9613 10 14.4948 10.6321 15.6255 11.7574C16.7561 12.8826 17.3913 14.4087 17.3913 16C17.3913 17.5913 16.7561 19.1174 15.6255 20.2426C14.4948 21.3679 12.9613 22 11.3623 22C9.76333 22 8.22984 21.3679 7.09918 20.2426C5.96853 19.1174 5.33333 17.5913 5.33333 16C5.33333 14.4087 5.96853 12.8826 7.09918 11.7574ZM17.8551 16C17.8551 12.9414 19.2046 10.4615 20.8696 10.4615C22.5345 10.4615 23.8841 12.9414 23.8841 16C23.8841 16.5737 23.8368 17.1266 23.7486 17.6468C23.6313 18.3405 23.4416 18.976 23.1958 19.5229C23.0729 19.7966 22.9361 20.0482 22.7872 20.2738C22.4895 20.7252 22.1435 21.0737 21.766 21.2897C21.4827 21.4512 21.1817 21.5385 20.8696 21.5385C20.5574 21.5385 20.2565 21.4512 19.9731 21.2897C19.5956 21.0737 19.2496 20.7252 18.9519 20.2738C18.803 20.0482 18.6662 19.7966 18.5433 19.5229C18.2975 18.9755 18.1078 18.3405 17.9905 17.6468C17.9024 17.1266 17.8551 16.5737 17.8551 16ZM25.1627 11.1515C25.2712 11.0029 25.3871 10.9231 25.5072 10.9231C26.1477 10.9231 26.6667 13.1962 26.6667 16C26.6667 18.8038 26.1477 21.0769 25.5072 21.0769C25.3871 21.0769 25.2712 20.9971 25.1627 20.8489C25.0903 20.7502 25.0208 20.6209 24.9549 20.4645C24.922 20.3865 24.89 20.3015 24.8594 20.2102C24.7977 20.0278 24.7402 19.8202 24.6878 19.5903C24.583 19.1306 24.4981 18.5837 24.4392 17.9763C24.4095 17.6726 24.3868 17.3537 24.3715 17.0232C24.3557 16.6928 24.3478 16.3503 24.3478 16C24.3478 15.6497 24.3557 15.3072 24.3715 14.9772C24.3872 14.6468 24.41 14.3278 24.4392 14.0242C24.4981 13.4168 24.583 12.8694 24.6878 12.4102C24.7402 12.1808 24.7977 11.9726 24.8594 11.7903C24.89 11.6989 24.922 11.614 24.9549 11.536C25.0203 11.3795 25.0899 11.2503 25.1627 11.1515Z" fill="#7C86A0"/>
</svg>
