<svg width="26" height="27" viewBox="0 0 26 27" fill="none" xmlns="http://www.w3.org/2000/svg">
<path fill-rule="evenodd" clip-rule="evenodd" d="M6 4.99689C3.79086 4.99689 2 6.78775 2 8.99689V18.5969C2 20.806 3.79086 22.5969 6 22.5969H20C22.2091 22.5969 24 20.806 24 18.5969V17.0969H19.3C17.6431 17.0969 16.3 15.7537 16.3 14.0969V13.4969C16.3 11.84 17.6431 10.4969 19.3 10.4969H24V8.99689C24 6.78775 22.2091 4.99689 20 4.99689H6ZM4.75 10.4969C5.05376 10.4969 5.3 10.7431 5.3 11.0469L5.3 16.5469C5.3 16.8506 5.05376 17.0969 4.75 17.0969C4.44624 17.0969 4.2 16.8506 4.2 16.5469L4.2 11.0469C4.2 10.7431 4.44624 10.4969 4.75 10.4969ZM17.3999 13.5969C17.3999 12.4923 18.2953 11.5969 19.3999 11.5969H23.9999V15.9969H19.3999C18.2953 15.9969 17.3999 15.1014 17.3999 13.9969V13.5969ZM20.7 13.7969C20.7 14.4044 20.2075 14.8969 19.6 14.8969C18.9925 14.8969 18.5 14.4044 18.5 13.7969C18.5 13.1894 18.9925 12.6969 19.6 12.6969C20.2075 12.6969 20.7 13.1894 20.7 13.7969Z" fill="#7C86A0"/>
</svg>
