<svg width="24" height="25" viewBox="0 0 24 25" fill="none" xmlns="http://www.w3.org/2000/svg">
<path fill-rule="evenodd" clip-rule="evenodd" d="M17.1314 9.82428L19.7506 7.21048C20.3519 6.61046 20.3519 5.63764 19.7506 5.03763C19.1494 4.43761 18.1746 4.43761 17.5733 5.03763L14.811 7.79425C14.7474 7.84301 14.6862 7.89655 14.6277 7.95486L11.0478 11.5274C9.97042 9.51253 10.2828 6.95222 11.9849 5.25361L14.8873 2.35717C16.972 0.276777 20.3519 0.276777 22.4366 2.35717C24.5213 4.43756 24.5213 7.81055 22.4366 9.89094L19.5342 12.7874C17.842 14.4761 15.2963 14.794 13.2828 13.7412L12.9539 14.0693C14.0294 16.0837 13.7165 18.6424 12.0152 20.3401L9.11282 23.2366C7.02814 25.317 3.6482 25.317 1.56351 23.2366C-0.521171 21.1562 -0.521171 17.7832 1.56351 15.7028L4.46593 12.8064C6.15898 11.1168 8.70635 10.7994 10.7204 11.8542L7.44822 15.1196C7.3421 15.2255 7.25172 15.3407 7.17721 15.4621C7.16871 15.4703 7.16027 15.4785 7.15191 15.4868L4.2495 18.3833C3.64824 18.9833 3.64824 19.9561 4.2495 20.5561C4.85075 21.1561 5.82558 21.1561 6.42684 20.5561L9.32925 17.6597C9.36612 17.6229 9.40072 17.5847 9.43307 17.5453C9.51768 17.4855 9.59866 17.4176 9.67481 17.3416L16.8543 10.1769C16.9634 10.0681 17.0558 9.94937 17.1314 9.82428ZM16.1465 9.47049L8.96697 16.6352C8.72341 16.8783 8.34444 16.8942 8.12051 16.6707C7.89658 16.4472 7.91249 16.069 8.15605 15.826L15.3356 8.66124C15.5791 8.41818 15.9581 8.4023 16.182 8.62577C16.406 8.84924 16.39 9.22743 16.1465 9.47049Z" fill="#7C86A0"/>
</svg>
