<svg width="25" height="25" viewBox="0 0 25 25" fill="none" xmlns="http://www.w3.org/2000/svg">
<path fill-rule="evenodd" clip-rule="evenodd" d="M5.43424 15.0242C5.43424 9.43234 9.84682 4.87489 15.3679 4.66787C14.0024 2.06869 11.2834 0.296875 8.15216 0.296875C3.64985 0.296875 0 3.96 0 8.47869C0 12.0663 2.30069 15.1146 5.50207 16.2185C5.45727 15.8266 5.43424 15.4281 5.43424 15.0242ZM15.7607 24.2969C20.8633 24.2969 24.9998 20.1453 24.9998 15.0241C24.9998 9.90296 20.8633 5.75142 15.7607 5.75142C10.6581 5.75142 6.52161 9.90296 6.52161 15.0241C6.52161 20.1453 10.6581 24.2969 15.7607 24.2969Z" fill="#7C86A0"/>
</svg>
