<svg width="26" height="27" viewBox="0 0 26 27" fill="none" xmlns="http://www.w3.org/2000/svg">
<path fill-rule="evenodd" clip-rule="evenodd" d="M12.7805 11.0052C12.7805 7.50528 15.8536 2.7415 17.3902 0.796982V15.3802C15.8536 15.3802 12.7805 14.5052 12.7805 11.0052ZM17.3902 0.796982L17.3903 15.3802C18.9269 15.3802 22 14.5052 22 11.0052C22 7.50528 18.9269 2.7415 17.3903 0.796982V0.796875L17.3903 0.796929L17.3902 0.796875V0.796982ZM11.7805 11.1911C11.7805 10.07 12.0441 8.84128 12.4664 7.59732C11.7732 6.53938 11.1154 5.63409 10.5855 4.96353V25.7969C12.7806 25.7969 17.1709 24.5469 17.1709 19.5469C17.1709 18.5626 17.0008 17.5083 16.7107 16.4286C14.7408 16.1985 11.7805 14.9484 11.7805 11.1911ZM10.5854 4.96353C8.39027 7.74131 4 14.5469 4 19.5469C4 24.5469 8.39027 25.7969 10.5854 25.7969V4.96353Z" fill="url(#paint0_linear_718_356)"/>
<defs>
<linearGradient id="paint0_linear_718_356" x1="4.0138" y1="0.796865" x2="22.6708" y2="1.29721" gradientUnits="userSpaceOnUse">
<stop offset="0.00261052" stop-color="#944DFF"/>
<stop offset="1" stop-color="#00CBA1"/>
</linearGradient>
</defs>
</svg>
