<svg width="16" height="17" viewBox="0 0 16 17" fill="none" xmlns="http://www.w3.org/2000/svg">
<path fill-rule="evenodd" clip-rule="evenodd" d="M0 6.21429C0 3.05837 2.55837 0.5 5.71429 0.5H8C11.1559 0.5 13.7143 3.05837 13.7143 6.21429V8.5C13.7143 9.66519 13.3655 10.7489 12.7667 11.6525C12.7808 11.6652 12.7946 11.6783 12.8081 11.6919L15.6652 14.549C16.1115 14.9953 16.1115 15.719 15.6652 16.1653C15.2189 16.6116 14.4953 16.6116 14.049 16.1653L11.1918 13.3081C11.1783 13.2946 11.1652 13.2808 11.1525 13.2668C10.2489 13.8656 9.16517 14.2143 8 14.2143H5.71429C2.55837 14.2143 0 11.6559 0 8.5V6.21429ZM5.71429 2.78571H8C9.89355 2.78571 11.4286 4.32074 11.4286 6.21429V8.5C11.4286 10.3935 9.89355 11.9286 8 11.9286H5.71429C3.82074 11.9286 2.28571 10.3935 2.28571 8.5V6.21429C2.28571 4.32074 3.82074 2.78571 5.71429 2.78571Z" fill="#7C86A0"/>
</svg>
