<svg width="32" height="33" viewBox="0 0 32 33" fill="none" xmlns="http://www.w3.org/2000/svg">
<path fill-rule="evenodd" clip-rule="evenodd" d="M12.6509 5C12.834 6.4812 14.0972 7.62778 15.6279 7.62778C17.1587 7.62778 18.4219 6.4812 18.605 5C19.7222 5.28522 20.7769 5.72726 21.7441 6.3013C20.8271 7.47827 20.9097 9.18161 21.9917 10.2638C23.0742 11.3461 24.7773 11.4286 25.9541 10.5114C26.5283 11.4785 26.9707 12.5332 27.2559 13.6507C25.7749 13.834 24.6279 15.097 24.6279 16.6278C24.6279 18.1586 25.7749 19.4217 27.2559 19.6049C26.9707 20.7224 26.5283 21.7771 25.9541 22.7442C24.7773 21.8271 23.0742 21.9096 21.9922 22.9919C20.9097 24.074 20.8271 25.7772 21.7441 26.9542C20.7769 27.5283 19.7227 27.9704 18.605 28.2556C18.4219 26.7744 17.1587 25.6279 15.6279 25.6279C14.0972 25.6279 12.834 26.7744 12.6509 28.2556C11.5332 27.9704 10.4785 27.5283 9.51123 26.9542C10.4287 25.7772 10.3462 24.074 9.26367 22.9918C8.18164 21.9096 6.47852 21.827 5.30127 22.744C4.72705 21.7769 4.28516 20.7223 4 19.6049C5.48096 19.4217 6.62793 18.1586 6.62793 16.6278C6.62793 15.097 5.48096 13.834 4 13.6507C4.28516 12.5333 4.72705 11.4786 5.30127 10.5114C6.47803 11.4286 8.18164 11.3461 9.26367 10.2639C10.3462 9.18164 10.4287 7.47839 9.51123 6.30145C10.4785 5.72736 11.5332 5.28525 12.6509 5ZM19.6279 16.6278C19.6279 18.8369 17.8369 20.6278 15.6279 20.6278C13.4189 20.6278 11.6279 18.8369 11.6279 16.6278C11.6279 14.4187 13.4189 12.6278 15.6279 12.6278C17.8369 12.6278 19.6279 14.4187 19.6279 16.6278Z" fill="#7C86A0"/>
</svg>
