<svg width="15" height="17" viewBox="0 0 15 17" fill="none" xmlns="http://www.w3.org/2000/svg">
<g clip-path="url(#clip0_737_975)">
<path d="M12.1469 1.5C13.2636 1.5 14.1714 2.39688 14.1714 3.5V13.5C14.1714 14.6031 13.2636 15.5 12.1469 15.5H2.02449C0.907857 15.5 0 14.6031 0 13.5V3.5C0 2.39688 0.907857 1.5 2.02449 1.5H12.1469ZM5.06122 5C4.64051 5 4.30204 5.33437 4.30204 5.75C4.30204 6.16563 4.64051 6.5 5.06122 6.5H8.03786L3.76429 10.7188C3.46694 11.0125 3.46694 11.4875 3.76429 11.7781C4.06163 12.0687 4.54245 12.0719 4.83663 11.7781L9.10704 7.55937V10.75C9.10704 11.1656 9.44551 11.5 9.86622 11.5C10.2869 11.5 10.6254 11.1656 10.6254 10.75V5.75C10.6254 5.33437 10.2869 5 9.86622 5H5.06122Z" fill="#7C86A0"/>
</g>
<defs>
<clipPath id="clip0_737_975">
<rect width="14.1714" height="16" fill="white" transform="translate(0 0.5)"/>
</clipPath>
</defs>
</svg>
