<svg width="104" height="104" viewBox="0 0 104 104" fill="none" xmlns="http://www.w3.org/2000/svg">
<circle cx="52" cy="52" r="52" fill="#242628"/>
<path d="M50.0979 25.8541C50.6966 24.0115 53.3034 24.0115 53.9021 25.8541L58.7354 40.7295C59.0032 41.5535 59.7711 42.1115 60.6375 42.1115H76.2784C78.2159 42.1115 79.0214 44.5907 77.454 45.7295L64.8002 54.923C64.0993 55.4323 63.806 56.335 64.0737 57.1591L68.907 72.0344C69.5057 73.8771 67.3968 75.4093 65.8293 74.2705L53.1756 65.077C52.4746 64.5677 51.5254 64.5677 50.8244 65.077L38.1707 74.2705C36.6032 75.4093 34.4943 73.8771 35.093 72.0344L39.9263 57.1591C40.194 56.335 39.9007 55.4323 39.1997 54.923L26.546 45.7295C24.9786 44.5907 25.7841 42.1115 27.7216 42.1115H43.3625C44.2289 42.1115 44.9968 41.5535 45.2646 40.7295L50.0979 25.8541Z" fill="#7C86A0"/>
</svg>
