<svg width="32" height="32" viewBox="0 0 32 32" fill="none" xmlns="http://www.w3.org/2000/svg">
<path d="M16 0C24.8369 0 32 7.16313 32 16C32 24.8369 24.8369 32 16 32C7.16313 32 0 24.8369 0 16C0 7.16313 7.16313 0 16 0ZM21.5193 22.5217C21.8136 21.6188 23.1923 12.6198 23.3628 10.8466C23.4143 10.3096 23.2445 9.95269 22.912 9.79339C22.5099 9.6 21.9144 9.6967 21.2237 9.94574C20.2762 10.2873 8.16348 15.4303 7.46365 15.728C6.8 16.0097 6.17252 16.3172 6.17252 16.7624C6.17252 17.0755 6.35826 17.2515 6.87026 17.4344C7.40313 17.6243 8.74504 18.0313 9.53739 18.2497C10.3005 18.4605 11.1694 18.2776 11.6563 17.975C12.1725 17.6543 18.1294 13.6682 18.5572 13.319C18.9843 12.9697 19.3252 13.417 18.976 13.767C18.6268 14.1162 14.5377 18.0849 13.9986 18.6344C13.344 19.3016 13.8087 19.993 14.2477 20.2699C14.7492 20.5857 18.3562 23.0052 18.8995 23.3934C19.4428 23.7816 19.9937 23.9576 20.4981 23.9576C21.0024 23.9576 21.2682 23.2932 21.5193 22.5217Z" fill="#7C86A0"/>
</svg>
