<svg width="32" height="32" viewBox="0 0 32 32" fill="none" xmlns="http://www.w3.org/2000/svg">
<path fill-rule="evenodd" clip-rule="evenodd" d="M16 32C24.8366 32 32 24.8366 32 16C32 7.16344 24.8366 0 16 0C7.16344 0 0 7.16344 0 16C0 24.8366 7.16344 32 16 32ZM24.3201 11.3317C25.1336 11.2283 25.9139 11.0154 26.6462 10.6942C26.0973 11.5114 25.4241 12.2215 24.6228 12.7902C24.6314 12.9612 24.6376 13.1335 24.6376 13.312C24.6376 18.6462 20.5761 24.8 13.1471 24.8C10.8616 24.8 8.74221 24.1415 6.95391 22.9883C7.27144 23.0289 7.58898 23.0437 7.92006 23.0437C9.80806 23.0437 11.5521 22.3963 12.9256 21.3218C11.1607 21.2837 9.67637 20.1083 9.15329 18.5095C9.39821 18.5637 9.65914 18.5785 9.9176 18.5785C10.2893 18.5785 10.6474 18.5354 10.9761 18.4455C9.14098 18.0702 7.7416 16.4406 7.7416 14.4788V14.4345C8.28067 14.7311 8.91698 14.9194 9.5656 14.9317C8.49237 14.2142 7.77237 12.9748 7.77237 11.5766C7.77237 10.832 7.97668 10.1403 8.32498 9.536C10.3201 11.9865 13.2899 13.5951 16.6462 13.7588C16.5798 13.4658 16.5527 13.1582 16.5527 12.8382C16.5527 10.6142 18.3521 8.8 20.5871 8.8C21.7391 8.8 22.7951 9.28862 23.5361 10.0775C24.4542 9.89415 25.3158 9.56554 26.0961 9.10031C25.7958 10.0468 25.157 10.832 24.3201 11.3317Z" fill="#7C86A0"/>
</svg>
