<svg width="64" height="64" viewBox="0 0 64 64" fill="none" xmlns="http://www.w3.org/2000/svg">
<path fill-rule="evenodd" clip-rule="evenodd" d="M31.2885 28.3433C31.2885 22.7591 36.1914 15.1585 38.6434 12.0554V35.3242C36.1914 35.324 31.2885 33.9276 31.2885 28.3433ZM38.6434 12.0554L38.6441 35.3242C41.0961 35.324 45.999 33.9276 45.999 28.3433C45.999 22.7591 41.0961 15.1585 38.6441 12.0554V12.0546L38.6437 12.055L38.6434 12.0546V12.0554ZM29.6953 28.6399C29.6953 26.8518 30.1155 24.8923 30.7886 22.9084C29.6831 21.2208 28.6337 19.7765 27.7882 18.7063V18.7031L27.7869 18.7047L27.7856 18.7031V18.7063C24.2822 23.1406 17.2803 33.9965 17.2803 41.9728C17.2803 49.949 24.2822 51.9445 27.7856 51.9455V18.7063L27.7882 51.9455C31.2916 51.9445 38.2935 49.949 38.2935 41.9728C38.2935 40.4021 38.022 38.7197 37.5592 36.9967C34.4158 36.6286 29.6953 34.6332 29.6953 28.6399Z" fill="#7C86A0"/>
<path d="M10 54L54 10" stroke="#1B1C1E" stroke-width="7"/>
<circle cx="32" cy="32" r="30" stroke="#7C86A0" stroke-width="4"/>
<path d="M10 54L54 10" stroke="#7C86A0" stroke-width="4"/>
</svg>
