<svg width="60" height="46" viewBox="0 0 60 46" fill="none" xmlns="http://www.w3.org/2000/svg">
<path fill-rule="evenodd" clip-rule="evenodd" d="M48 17C44.6863 17 42 19.6863 42 23C42 26.3137 44.6863 29 48 29H59.9999V17H48ZM47.9998 25.9999C49.6566 25.9999 50.9998 24.6568 50.9998 22.9999C50.9998 21.3431 49.6566 19.9999 47.9998 19.9999C46.3429 19.9999 44.9998 21.3431 44.9998 22.9999C44.9998 24.6568 46.3429 25.9999 47.9998 25.9999Z" fill="#7C86A0"/>
<path fill-rule="evenodd" clip-rule="evenodd" d="M0 11.0001C0 4.92493 4.92487 6.10352e-05 11 6.10352e-05H49C55.0751 6.10352e-05 60 4.92493 60 11.0001V14H48.0002C43.0297 14 39.0003 18.0294 39.0003 23C39.0003 27.9705 43.0297 31.9999 48.0002 31.9999H60V35.0001C60 41.0752 55.0751 46.0001 49 46.0001H11C4.92487 46.0001 0 41.0752 0 35.0001V11.0001ZM9.00038 15.5C9.00038 14.6716 8.32881 14 7.50039 14C6.67196 14 6.00039 14.6716 6.00039 15.5L6.00039 30.4999C6.00039 31.3284 6.67196 31.9999 7.50039 31.9999C8.32881 31.9999 9.00038 31.3284 9.00038 30.4999L9.00038 15.5Z" fill="#7C86A0"/>
</svg>
